<?xml version="1.0" standalone="no"?><svg xmlns="http://www.w3.org/2000/svg" viewBox="0 0 1440 320"><path fill="#f1b703" fill-opacity="1" d="M0,32L30,37.3C60,43,120,53,180,74.7C240,96,300,128,360,128C420,128,480,96,540,96C600,96,660,128,720,133.3C780,139,840,117,900,112C960,107,1020,117,1080,122.7C1140,128,1200,128,1260,106.7C1320,85,1380,43,1410,21.3L1440,0L1440,0L1410,0C1380,0,1320,0,1260,0C1200,0,1140,0,1080,0C1020,0,960,0,900,0C840,0,780,0,720,0C660,0,600,0,540,0C480,0,420,0,360,0C300,0,240,0,180,0C120,0,60,0,30,0L0,0Z"></path></svg>